<?xml version="1.0" encoding="UTF-8" standalone="no"?>
<!-- Created with Inkscape (http://www.inkscape.org/) -->

<svg
   width="156.22801mm"
   height="155.59431mm"
   viewBox="0 0 156.22801 155.59431"
   version="1.1"
   id="svg5"
   inkscape:version="1.1.2 (0a00cf5339, 2022-02-04)"
   sodipodi:docname="logo.svg"
   xmlns:inkscape="http://www.inkscape.org/namespaces/inkscape"
   xmlns:sodipodi="http://sodipodi.sourceforge.net/DTD/sodipodi-0.dtd"
   xmlns="http://www.w3.org/2000/svg"
   xmlns:svg="http://www.w3.org/2000/svg">
  <sodipodi:namedview
     id="namedview7"
     pagecolor="#ffffff"
     bordercolor="#666666"
     borderopacity="1.0"
     inkscape:pageshadow="2"
     inkscape:pageopacity="0.0"
     inkscape:pagecheckerboard="0"
     inkscape:document-units="mm"
     showgrid="false"
     fit-margin-top="0"
     fit-margin-left="0"
     fit-margin-right="0"
     fit-margin-bottom="0"
     inkscape:zoom="0.77771465"
     inkscape:cx="289.95211"
     inkscape:cy="235.94772"
     inkscape:window-width="1920"
     inkscape:window-height="1136"
     inkscape:window-x="1200"
     inkscape:window-y="396"
     inkscape:window-maximized="1"
     inkscape:current-layer="layer1" />
  <defs
     id="defs2" />
  <g
     inkscape:label="Layer 1"
     inkscape:groupmode="layer"
     id="layer1"
     transform="translate(-28.362131,-4.3898101)">
    <path
       id="path1350"
       style="fill:none;fill-opacity:0.75;fill-rule:evenodd;stroke:#000000;stroke-width:1;stroke-linecap:butt;stroke-linejoin:miter;stroke-miterlimit:4;stroke-dasharray:none;stroke-opacity:1"
       d="m 34.720529,26.96498 1.852084,1.11125 1.27,0.79375 c 0,0 1.74625,2.262188 2.2225,2.2225 0.47625,-0.03969 0,-1.5875 0,-1.5875 l 0.47625,-2.2225 0.9525,-1.5875 -0.635,-1.74625 c 0,0 -0.714375,0.833438 -1.5875,0.47625 -0.873125,-0.357187 -1.905,-1.42875 -1.905,-1.42875 l -1.5875,1.11125 -1.5875,-0.79375 v -3.175 l 1.5875,1.11125 1.5875,0.47625 2.38125,-0.79375 2.8575,-0.15875 3.175,-0.47625 3.01625,-0.635 4.1275,-1.11125 2.8575,-0.635 2.54,-0.47625 3.33375,-0.47625 c 0,0 1.944687,0 3.01625,-0.79375 1.071562,-0.793749 1.5875,-2.381249 1.5875,-2.381249 l 2.06375,-1.74625 2.54,-1.74625 2.698748,-0.9524997 3.4925,-0.3175 3.96875,-0.79375 3.4925,-0.635 4.445,-0.15875 3.175,-0.79375 1.5875,-0.79375 2.69875,-0.79375 2.38125,-0.15875 4.444999,2.54 1.74625,1.74625 c 0,0 0.91193,1.1910117 1.42875,2.3812497 0.15891,0.365972 -0.9525,-0.15875 -0.9525,-0.15875 l -0.71437,-1.6668747 -0.87313,-1.031875 -2.38125,-1.825625 -2.222499,-1.031875 v 2.38125 l 0.15875,2.3812497 0.47625,2.38125 0.158749,2.38125 1.74625,1.587499 1.42875,1.5875 3.01625,0.47625 2.38125,-0.15875 3.81,-0.79375 2.2225,-0.9525 c 0,0 1.15094,-1.389061 2.06375,-1.428749 0.91281,-0.03969 1.5875,1.269999 1.5875,1.269999 l 7.14375,0.79375 4.7625,1.5875 6.985,1.11125 6.0325,0.9525 3.65125,0.635 3.96875,0.47625 h 4.7625 l 2.38125,-0.79375 h 2.38125 l 3.175,-0.79375 2.10344,0.03969 2.97656,1.706562 1.27,2.2225 2.38125,1.5875 1.19063,1.389063 0.39687,3.373437 v 3.175 l 0.99219,2.2225 0.11906,3.81 0.87313,2.54 0.39687,3.96875 1.1017,2.8575 c 0,0 0.15925,1.654778 0.29783,2.65611 0.20145,1.455645 0.49257,0.605036 0.61278,2.069629 0.0891,1.085842 0.72599,1.145776 0.79062,2.19973 0.0645,1.051719 -0.27712,1.819966 0.21332,2.917031 0.45021,1.007071 1.42875,2.8575 1.42875,2.8575 l -0.9525,2.2225 -2.2225,2.06375 c 0,0 -1.27,1.150938 -2.38125,1.5875 -1.11125,0.436563 -1.03187,1.11125 -2.2225,1.905 -1.19062,0.79375 -2.2225,2.2225 -2.2225,2.2225 0,0 -2.30187,1.150938 -1.905,2.54 0.39688,1.389064 3.33375,2.698751 3.33375,2.698751 l 2.69875,1.905 0.635,3.175 v 3.96875 l -0.21167,3.942292 0.26459,2.831042 -0.3175,3.809999 0.79375,3.175004 1.5875,3.17499 1.5875,1.5875 1.5875,3.175 0.79375,1.5875 1.5875,1.27 c -0.58209,0.15876 -1.00542,0.60396 -1.5875,0.3175 l -1.5875,2.38125 1.5875,2.38125 2.38125,1.5875 -1.5875,3.175 -1.74625,0.3175 -4.96094,4.68312 -5.11969,5.31813 -4.80218,4.84187 -4.96094,5.79438 -2.2225,1.27 2.06375,3.33375 -0.9525,2.06375 0.47625,4.1275 1.905,2.69875 -0.15875,3.33375 -2.2225,-1.74625 -2.69875,-0.3175 -3.96875,-2.38125 -3.96875,-0.79375 -3.175,-2.38125 -2.38125,-1.5875 -3.96875,-1.5875 -3.175,-2.38125 -3.175,0.79375 -3.175,2.38125 -3.175,0.79375 -2.38125,-1.5875 -2.38125,-2.38125 -3.175,0.79375 -1.5875,1.5875 -1.5875,3.96875 -3.175,-1.5875 -3.175,0.79375 0.79375,-3.96875 -0.79375,-2.38125 -1.5875,-3.96875 -1.5875,-1.5875 -1.5875,0.79375 -2.38125,2.38125 -0.79375,1.5875 h -1.587499 l -2.38125,0.79375 -1.78594,-2.91042 c -0.39687,-1.32291 -0.59531,-3.70416 -0.59531,-3.70416 l -2.38125,-2.38125 v -2.38125 l -3.175,-3.175 -3.175,-2.38125 -3.175,-1.5875 -3.175,3.175 -2.38125,-3.175 -2.38125,-3.175 1.5875,-2.38125 1.5875,-1.5875 -2.38125,-1.5875 h -3.175 l -4.762502,-0.79375 c 0,0 -2.579687,-2.38125 -3.175,-2.38125 -0.595312,0 -0.298397,0.70375 0.79375,3.01625 0.506217,1.07185 0.198438,1.42875 0.873125,2.2225 0.613125,0.72132 -0.07937,1.905 -0.07937,1.905 l -1.5875,-0.3175 -1.5875,0.9525 c 0,0 -1.468437,1.98437 -2.38125,1.74625 -0.912812,-0.23813 -2.06375,-2.54 -2.06375,-2.54 l -0.79375,-2.2225 -1.5875,-3.175 -2.06375,-2.06375 1.5875,-2.06375 c 0,0 2.341563,-0.23813 2.54,-1.42875 0.198438,-1.19063 -1.11125,-2.38125 -1.11125,-2.38125 l -1.27,-1.5875 -3.96875,-0.79375 -4.7625,-0.79375 -3.96875,-0.79375 -2.38125,-3.96875 -0.79375,-2.381248 -2.8575,-0.79375 c 0,0 -0.714375,0.47625 -0.9525,1.11125 -0.238125,0.635 -0.15875,1.5875 -0.15875,1.5875 l -1.5875,-0.3175 c 0,0 0.873125,-1.508125 1.27,-2.69875 0.396875,-1.190624 0.3175,-2.063749 0.3175,-2.063749 0,0 1.74625,-3.33375 1.74625,-3.33375 0,0 0.436563,-1.865312 -0.9525,-5.08 -0.694536,-1.607346 -1.329528,-3.275647 -2.366361,-4.640619 -1.036831,-1.364969 -0.689573,-2.445028 -1.443644,-3.773133 0.35718,-1.328105 0.635,-3.016251 0.635,-3.016251 l 2.38125,-3.175 0.79375,-3.175 -0.79375,-1.5875 v -2.38125 l -1.5875,-2.38125 0.15875,-3.01625 1.42875,-2.54 c 0,0 -0.674687,-0.833437 -1.666875,-1.825625 -0.992187,-0.992187 -2.301875,-2.143125 -2.301875,-2.143125 l -1.11125,-2.38125 -2.2225,-2.2225 1.5875,-2.38125 c 0,0 1.27,-0.674687 2.69875,-2.69875 1.42875,-2.024062 2.54,-4.7625 2.54,-4.7625 l 0.47625,-3.01625 -1.5875,-2.38125 z"
       sodipodi:nodetypes="cccsccccsccccccccccccccsccccccccccccccscccccccccccccccscccccccccccccccccccccccsssscccsscsccccccccccccccccccccccccccccccccccccccccccccccccccccccccccccccccccccccczszcccscccccsccccccccscccccsscccccccccsccccscccc" />
    <text
       xml:space="preserve"
       style="font-style:normal;font-weight:normal;font-size:77.0484px;line-height:0.25;font-family:sans-serif;letter-spacing:0px;word-spacing:0px;fill:#000000;fill-opacity:1;stroke:none;stroke-width:4.12758"
       x="46.833275"
       y="97.746872"
       id="text2658"><tspan
         sodipodi:role="line"
         id="tspan2656"
         style="stroke-width:4.12758"
         x="46.833275"
         y="97.746872">MT</tspan></text>
  </g>
</svg>
